<?xml version="1.0" standalone="no"?> <!DOCTYPE svg PUBLIC "-//W3C//DTD SVG 20010904//EN" "http://www.w3.org/TR/2001/REC-SVG-20010904/DTD/svg10.dtd"> <svg version="1.0" xmlns="http://www.w3.org/2000/svg" width="600.000000pt" height="450.000000pt" viewBox="0 0 600.000000 450.000000" preserveAspectRatio="xMidYMid meet"> <g transform="translate(0.000000,450.000000) scale(0.100000,-0.100000)" fill="#e87878" stroke="none"> <path d="M4800 3734 c-52 -7 -114 -16 -137 -19 l-42 -6 1 -57 c1 -50 -16 -104 -136 -427 -152 -413 -173 -460 -248 -559 -69 -92 -224 -207 -172 -128 83 127 134 250 154 375 19 122 -16 223 -90 262 -60 31 -160 12 -239 -44 l-28 -20 5 26 c5 24 3 25 -29 20 -19 -4 -74 -12 -124 -18 -49 -7 -94 -16 -100 -20 -5 -5 -8 -28 -6 -52 3 -56 -102 -352 -159 -448 -105 -177 -225 -274 -260 -208 -19 34 -9 66 127 423 52 136 92 250 89 253 -3 3 -53 -2 -112 -10 -98 -14 -117 -22 -127 -50 -1 -5 -20 1 -40 13 -29 17 -54 23 -102 23 -108 0 -230 -71 -332 -195 -61 -73 -140 -236 -159 -328 -66 -316 161 -475 382 -267 36 33 66 58 67 56 1 -2 9 -17 17 -34 21 -40 75 -75 116 -75 57 0 141 38 199 92 30 27 55 46 55 41 0 -19 -153 -400 -190 -473 -16 -32 -18 -42 -7 -45 7 -3 66 2 132 12 l120 18 8 55 c7 49 115 387 139 434 9 17 12 16 37 -12 96 -104 406 -25 596 152 33 31 61 56 62 56 2 0 3 -14 3 -30 0 -40 22 -90 49 -114 36 -32 127 -34 193 -4 58 27 151 107 189 162 28 42 36 44 48 13 15 -38 61 -87 104 -109 73 -37 177 -34 302 7 13 5 8 -4 -15 -24 -43 -38 -247 -141 -350 -175 -262 -88 -606 -140 -1067 -162 l-142 -6 -20 -61 c-12 -34 -21 -67 -21 -74 0 -13 129 -11 440 8 603 37 1077 200 1306 450 88 96 183 266 214 383 12 44 12 50 -4 62 -26 19 -42 8 -85 -55 -51 -74 -155 -171 -217 -201 -69 -33 -158 -38 -202 -10 -38 24 -62 73 -62 127 l0 38 78 13 c197 31 355 180 369 349 6 73 -24 137 -77 165 -52 28 -156 20 -235 -18 -152 -72 -303 -292 -331 -481 -8 -59 -58 -137 -126 -198 -54 -49 -92 -64 -117 -48 -37 23 -28 61 97 388 134 350 210 534 273 662 33 67 60 126 60 130 0 12 -19 12 -121 -3z m410 -539 c31 -37 -19 -169 -92 -244 -40 -41 -126 -91 -157 -91 -20 0 -8 50 34 138 44 93 91 158 135 188 40 28 62 30 80 9z m-1209 -162 c9 -10 14 -39 13 -82 -4 -177 -179 -497 -288 -525 -36 -9 -72 13 -79 51 -17 88 103 394 196 500 60 68 128 92 158 56z m-909 -100 c27 -24 23 -88 -13 -190 -82 -236 -194 -403 -270 -403 -43 0 -55 8 -68 43 -35 91 37 320 144 460 72 95 160 133 207 90z"/> <path d="M2690 3629 l-135 -19 -68 -72 c-156 -167 -418 -507 -610 -791 -59 -88 -107 -157 -108 -155 0 1 -2 104 -5 228 -7 338 -21 671 -28 678 -6 6 -324 -34 -351 -45 -24 -9 -17 -38 15 -61 24 -18 30 -30 30 -61 0 -64 -199 -630 -322 -916 -124 -287 -217 -395 -341 -395 -54 0 -91 26 -107 75 -24 74 38 173 130 206 93 33 47 73 -75 67 -171 -9 -308 -150 -308 -317 0 -112 48 -189 146 -231 151 -65 350 -10 483 133 109 118 189 293 339 744 47 142 88 265 92 273 16 35 40 -297 49 -672 l7 -288 27 0 c42 0 69 33 170 210 196 344 532 850 606 911 23 19 37 62 -166 -491 -162 -442 -175 -626 -51 -750 93 -93 192 -101 492 -41 107 21 266 49 354 61 88 12 162 24 164 26 10 9 61 147 57 152 -8 7 -317 -16 -511 -38 -216 -25 -252 -25 -293 0 -96 59 -80 232 61 645 140 407 263 687 382 865 44 64 50 92 22 89 -7 -1 -73 -10 -147 -20z"/> <path d="M1805 1929 c-289 -51 -610 -141 -745 -209 -98 -49 -130 -76 -130 -110 0 -16 3 -31 8 -34 4 -2 52 -12 107 -21 113 -19 229 -55 294 -91 53 -29 82 -30 106 -4 34 38 167 122 268 170 95 46 301 120 332 120 30 0 24 21 -19 60 -24 22 -53 63 -65 90 -12 28 -27 50 -34 49 -7 0 -61 -9 -122 -20z"/> <path d="M3533 1808 c-35 -11 -43 -32 -18 -42 12 -4 15 -32 15 -161 0 -129 -3 -157 -15 -161 -33 -13 -12 -24 45 -24 64 0 69 3 45 26 -15 16 -22 135 -9 168 8 21 60 21 68 0 10 -26 7 -162 -4 -169 -24 -15 -6 -25 45 -25 56 0 67 8 40 30 -11 9 -15 35 -15 106 0 85 -2 94 -22 108 -28 20 -59 20 -84 1 -10 -8 -22 -15 -26 -15 -5 0 -8 38 -8 85 0 92 1 91 -57 73z"/> <path d="M2710 1790 c0 -6 7 -13 15 -16 12 -5 15 -33 15 -161 0 -137 -2 -157 -17 -169 -29 -21 -9 -27 80 -25 35 1 47 5 47 16 0 8 -7 15 -15 15 -24 0 -20 101 4 131 l20 24 30 -67 c35 -77 37 -84 16 -92 -37 -14 -10 -26 60 -26 60 0 75 3 75 15 0 8 -5 15 -11 15 -5 0 -34 50 -64 111 l-54 112 36 42 c20 24 46 48 59 54 42 19 26 31 -41 31 -61 0 -85 -13 -50 -26 8 -4 15 -12 15 -19 0 -14 -86 -128 -101 -133 -5 -2 -9 28 -9 71 0 57 4 76 15 81 37 14 11 26 -55 26 -41 0 -70 -4 -70 -10z"/> <path d="M4320 1790 c0 -5 9 -14 20 -20 19 -10 20 -21 20 -155 0 -134 -1 -146 -20 -157 -37 -24 -24 -38 35 -38 42 0 55 3 55 15 0 8 -7 15 -15 15 -22 0 -26 32 -23 165 l3 120 45 -137 c25 -76 50 -138 55 -138 6 0 30 60 55 133 l45 132 6 -60 c10 -89 -1 -215 -17 -215 -8 0 -14 -7 -14 -15 0 -12 15 -15 75 -15 72 0 92 9 60 27 -13 7 -16 37 -17 162 -2 135 0 154 15 162 33 19 16 29 -47 29 l-64 0 -33 -97 c-36 -110 -37 -110 -80 25 l-23 72 -68 0 c-37 0 -68 -4 -68 -10z"/> <path d="M5238 1759 c-12 -6 -18 -22 -18 -43 0 -21 -6 -36 -15 -40 -8 -3 -15 -12 -15 -21 0 -8 7 -15 15 -15 12 0 15 -18 15 -98 0 -83 3 -102 18 -115 23 -21 61 -22 90 -1 30 21 28 34 -8 34 l-30 0 0 90 c0 89 0 90 25 90 18 0 25 5 25 20 0 15 -7 20 -25 20 -23 0 -25 4 -25 45 0 48 -14 57 -52 34z"/> <path d="M3108 1664 c-64 -34 -82 -146 -34 -209 69 -90 199 -32 199 90 0 101 -86 163 -165 119z m82 -33 c5 -11 10 -50 10 -86 0 -75 -12 -105 -40 -105 -11 0 -24 9 -30 19 -14 27 -13 164 2 179 18 18 46 14 58 -7z"/> <path d="M3355 1668 c-31 -18 -44 -40 -45 -74 0 -35 17 -54 75 -81 31 -14 40 -24 40 -43 0 -20 -6 -26 -27 -28 -22 -3 -30 2 -37 21 -6 14 -14 28 -19 31 -20 12 -42 -6 -42 -33 0 -47 79 -67 139 -36 33 16 41 33 41 79 0 37 -16 54 -77 81 -33 14 -43 23 -43 42 0 30 35 32 50 2 14 -25 53 -22 58 5 8 39 -66 61 -113 34z"/> <path d="M3815 1647 c-58 -58 -59 -151 -4 -207 46 -45 120 -38 155 15 21 33 13 41 -20 20 -33 -22 -73 -13 -88 21 -14 30 -4 40 53 49 21 4 45 12 55 19 15 12 16 17 4 45 -31 75 -101 92 -155 38z m89 -13 c12 -33 6 -55 -20 -64 -14 -6 -30 -10 -35 -10 -13 0 -11 64 3 78 17 17 45 15 52 -4z"/> <path d="M4026 1662 c-34 -16 -37 -19 -22 -31 12 -10 16 -32 16 -97 0 -45 -4 -86 -10 -89 -25 -15 -5 -25 50 -25 57 0 78 11 45 24 -11 4 -15 20 -14 58 1 79 11 104 39 100 12 -1 29 3 36 9 17 14 19 55 3 64 -19 13 -56 -4 -69 -32 l-14 -28 -4 33 c-4 37 -4 37 -56 14z"/> <path d="M4782 1655 c-44 -37 -60 -111 -37 -171 29 -77 112 -99 166 -45 42 42 38 69 -5 36 -27 -20 -52 -19 -76 5 -33 33 -25 47 43 67 59 18 62 21 60 49 -3 38 -53 84 -92 84 -17 0 -42 -11 -59 -25z m86 -43 c3 -27 -1 -34 -23 -42 -39 -15 -45 -13 -45 16 0 39 18 66 43 62 17 -2 23 -11 25 -36z"/> <path d="M4989 1661 c-20 -16 -22 -23 -13 -38 15 -25 47 -23 59 5 11 25 40 29 49 6 14 -36 6 -51 -35 -63 -23 -7 -52 -23 -65 -36 -64 -64 11 -161 84 -109 20 14 24 14 38 0 20 -20 45 -20 70 -1 19 15 19 16 -3 31 -20 15 -23 25 -23 89 0 89 -4 102 -41 120 -39 21 -92 19 -120 -4z m99 -153 c-3 -38 -6 -43 -28 -43 -20 0 -26 6 -28 30 -3 19 2 33 14 42 34 25 45 16 42 -29z"/> <path d="M5417 1660 c-57 -45 -42 -111 33 -143 53 -22 67 -41 49 -63 -19 -23 -47 -16 -64 16 -16 32 -33 38 -53 18 -33 -33 7 -78 70 -78 68 0 108 34 108 93 0 34 -15 50 -72 77 -58 28 -73 62 -30 68 14 2 22 -2 22 -12 0 -25 36 -39 54 -20 20 19 20 29 0 48 -22 23 -86 20 -117 -4z"/> <path d="M620 1173 c0 -27 56 -249 65 -256 9 -7 94 -2 100 5 1 2 11 50 24 108 12 58 24 115 27 128 6 20 3 22 -35 22 -40 0 -41 -1 -41 -32 -1 -18 -7 -62 -14 -98 l-12 -65 -13 55 c-6 30 -15 74 -18 98 -6 41 -6 42 -44 42 -22 0 -39 -3 -39 -7z"/> <path d="M897 1065 c-15 -63 -30 -122 -33 -130 -5 -12 2 -15 35 -15 37 0 41 2 41 25 0 22 4 25 35 25 31 0 35 -3 35 -25 0 -23 4 -25 41 -25 34 0 40 3 36 18 -3 9 -15 62 -27 117 -13 55 -24 106 -26 113 -2 8 -23 12 -57 12 l-53 0 -27 -115z m92 -22 c1 -17 -5 -23 -19 -23 -21 0 -21 10 -2 75 5 18 6 18 13 -5 4 -14 7 -35 8 -47z"/> <path d="M1140 1176 c-3 -2 -3 -54 0 -115 6 -126 13 -139 78 -148 52 -7 101 12 113 44 5 13 9 69 9 124 0 104 -1 105 -47 93 -21 -6 -22 -13 -25 -103 -3 -95 -3 -96 -28 -96 -25 0 -25 0 -26 100 l-2 100 -34 3 c-18 2 -36 1 -38 -2z"/> <path d="M1397 1174 c-3 -3 10 -32 29 -65 l35 -59 -36 -61 c-19 -33 -35 -62 -35 -65 0 -2 17 -4 38 -4 35 0 39 3 54 43 l16 42 13 -35 c7 -19 12 -38 11 -42 -1 -5 20 -8 48 -8 l49 0 -34 58 c-19 31 -35 63 -35 71 0 8 13 38 30 67 l29 52 -22 6 c-39 10 -57 7 -57 -11 -1 -10 -7 -29 -14 -42 l-13 -24 -12 36 c-7 19 -19 38 -27 41 -20 8 -59 8 -67 0z"/> <path d="M1670 1050 l0 -130 40 0 40 0 0 50 c0 47 2 50 25 50 23 0 25 -3 25 -50 l0 -50 43 0 42 0 -3 130 -3 130 -40 0 -39 0 0 -50 c0 -47 -2 -50 -25 -50 -23 0 -25 3 -25 50 l0 50 -40 0 -40 0 0 -130z"/> <path d="M1996 1168 c-3 -7 -14 -56 -25 -108 -12 -52 -24 -105 -27 -117 -6 -21 -3 -23 35 -23 23 0 40 4 37 9 -12 19 7 41 35 41 24 0 29 -4 29 -25 0 -23 4 -25 43 -25 l43 0 -28 113 c-15 61 -28 120 -28 130 0 14 -9 17 -55 17 -36 0 -57 -4 -59 -12z m67 -115 c6 -29 4 -33 -14 -33 -19 0 -21 4 -15 31 3 17 6 39 6 48 1 24 16 -6 23 -46z"/> <path d="M2221 1050 l0 -130 34 -1 c130 -4 135 -3 135 30 0 28 -1 28 -45 23 l-45 -5 0 107 0 106 -40 0 -39 0 0 -130z"/> <path d="M2447 1048 l2 -133 68 -2 c77 -3 87 1 96 38 7 26 6 26 -44 21 l-50 -5 2 104 2 104 -39 3 -39 3 2 -133z"/> <path d="M2910 1046 c0 -122 2 -134 18 -131 9 2 25 4 34 4 14 1 18 13 20 68 l3 68 29 -73 c29 -72 31 -74 59 -68 16 3 33 6 38 6 5 0 9 59 9 130 l0 130 -36 0 -37 0 6 -65 c4 -36 4 -65 2 -65 -3 0 -18 29 -34 65 -30 64 -30 65 -70 65 l-41 0 0 -134z"/> <path d="M3270 1075 l0 -105 -34 0 c-19 0 -38 5 -41 10 -13 21 -26 9 -23 -22 3 -29 8 -34 41 -42 52 -13 108 2 124 34 8 15 13 65 13 128 l0 102 -40 0 -40 0 0 -105z"/> <path d="M3820 1178 c-4 -32 -4 -258 0 -259 3 0 19 -2 35 -5 17 -2 53 -2 81 1 47 6 52 9 56 34 l4 27 -53 -4 c-52 -4 -53 -4 -53 22 0 23 4 26 35 26 32 0 35 3 35 29 0 26 -3 29 -32 27 -28 -1 -34 3 -36 23 -4 22 -1 23 48 20 l51 -4 -3 30 -3 30 -82 3 c-46 2 -83 2 -83 0z"/> <path d="M4078 1165 c-35 -19 -46 -67 -23 -101 9 -14 36 -34 61 -44 75 -32 46 -71 -32 -44 -21 8 -40 14 -42 14 -2 0 -2 -14 0 -32 3 -27 8 -33 38 -41 46 -12 107 -3 131 19 25 22 26 85 1 107 -10 9 -34 23 -54 31 -46 20 -54 32 -29 46 15 8 29 7 56 -4 l35 -15 0 30 c0 22 -6 32 -26 39 -36 14 -84 12 -116 -5z"/> <path d="M4277 1174 c-4 -4 -7 -19 -7 -34 0 -24 3 -26 30 -22 l30 4 0 -104 0 -105 40 0 40 0 0 105 0 104 31 -4 c28 -4 30 -3 27 26 l-3 31 -90 3 c-50 1 -94 0 -98 -4z"/> <path d="M4753 1163 c-34 -17 -46 -53 -18 -53 12 0 15 -17 15 -94 0 -102 6 -112 56 -100 l25 6 -3 127 c-3 118 -4 126 -23 128 -11 1 -35 -5 -52 -14z"/> <path d="M4930 1168 c-50 -27 -63 -88 -29 -133 19 -23 28 -26 65 -23 37 3 44 0 44 -15 0 -29 -43 -42 -79 -24 l-31 15 0 -33 c0 -25 5 -34 23 -39 63 -17 125 4 145 49 7 14 12 55 12 90 0 52 -4 69 -23 90 -26 31 -89 42 -127 23z m78 -72 c4 -30 -12 -48 -34 -39 -17 6 -23 37 -12 57 15 26 43 15 46 -18z"/> <path d="M5175 1168 c-33 -18 -45 -40 -45 -83 0 -58 25 -79 83 -73 40 5 44 3 39 -14 -8 -32 -45 -43 -81 -25 l-31 15 0 -33 c0 -31 3 -34 40 -40 51 -9 93 1 116 26 23 26 33 159 14 194 -22 41 -91 58 -135 33z m73 -72 c4 -34 -8 -49 -31 -40 -17 6 -24 54 -10 68 15 15 38 0 41 -28z"/> <path d="M5398 1169 c-22 -8 -28 -17 -28 -40 0 -26 2 -28 19 -19 11 5 34 10 51 10 27 0 31 -3 28 -22 -2 -15 -11 -24 -25 -26 -36 -5 -32 -50 4 -54 34 -4 42 -32 14 -48 -16 -8 -29 -7 -56 4 l-35 15 0 -30 c0 -23 6 -32 28 -40 36 -14 108 -5 132 16 28 25 27 90 0 105 -19 10 -19 11 0 30 43 43 11 100 -60 106 -25 2 -57 -1 -72 -7z"/> <path d="M3558 1088 c-28 -22 -31 -55 -9 -77 27 -27 56 -27 75 1 21 30 20 44 -4 68 -23 23 -40 25 -62 8z"/> <path d="M2665 959 c-4 -13 -1 -27 10 -40 14 -15 15 -22 6 -33 -8 -10 -9 -16 -1 -21 23 -14 69 67 56 100 -9 24 -63 19 -71 -6z"/> <path d="M4497 974 c-14 -15 -7 -53 12 -59 31 -10 52 5 49 34 -2 19 -9 27 -28 29 -14 2 -29 0 -33 -4z"/> </g> </svg>